<svg width="66" height="69" viewBox="0 0 66 69" fill="none" xmlns="http://www.w3.org/2000/svg">
<circle cx="11.5" cy="11.5" r="11.5" fill="#B8530D"/>
<path d="M66 11.5C66 17.8513 60.8513 23 54.5 23C48.1487 23 43 17.8513 43 11.5C43 5.14873 48.1487 0 54.5 0C60.8513 0 62.5 2.5 63.5 3.5C63.7448 3.74485 60.05 4.13379 61 5C65.5 6 66 8.13257 66 11.5Z" fill="#B8530D"/>
<rect x="5" y="3" width="55" height="66" rx="26" fill="#DA7129"/>
<rect x="18" y="31" width="29" height="36" rx="13" fill="#FB8939"/>
<path d="M39 38C39 41.3137 37.5 45 32.5 45C27.5 45 26 41.3137 26 38C26 34.6863 28.9101 33 32.5 33C36.0899 33 39 34.6863 39 38Z" fill="#68310A"/>
</svg>
